<?xml version="1.0" encoding="utf-8"?>
<svg version="1.1" xmlns:xlink="http://www.w3.org/1999/xlink" width="113px" height="56px" xmlns="http://www.w3.org/2000/svg">
  <defs>
    <mask fill="white" id="clip26">
      <path d="M 0 49  L 0 7  C 0 3.08000000000006  1.77571428571432 0  4.03571428571429 0  L 54.1487577639751 0  L 59.4127329192545 0  L 108.964285714286 0  C 111.224285714286 0  113 3.08000000000006  113 7  L 113 49  C 113 52.9199999999999  111.224285714286 56  108.964285714286 56  L 4.03571428571429 56  C 1.77571428571432 56  0 52.9199999999999  0 49  Z " fill-rule="evenodd" />
    </mask>
  </defs>
  <g transform="matrix(1 0 0 1 -1020 -753 )">
    <path d="M 0 49  L 0 7  C 0 3.08000000000006  1.77571428571432 0  4.03571428571429 0  L 54.1487577639751 0  L 59.4127329192545 0  L 108.964285714286 0  C 111.224285714286 0  113 3.08000000000006  113 7  L 113 49  C 113 52.9199999999999  111.224285714286 56  108.964285714286 56  L 4.03571428571429 56  C 1.77571428571432 56  0 52.9199999999999  0 49  Z " fill-rule="nonzero" fill="#9c6962" stroke="none" transform="matrix(1 0 0 1 1020 753 )" />
    <path d="M 0 49  L 0 7  C 0 3.08000000000006  1.77571428571432 0  4.03571428571429 0  L 54.1487577639751 0  L 59.4127329192545 0  L 108.964285714286 0  C 111.224285714286 0  113 3.08000000000006  113 7  L 113 49  C 113 52.9199999999999  111.224285714286 56  108.964285714286 56  L 4.03571428571429 56  C 1.77571428571432 56  0 52.9199999999999  0 49  Z " stroke-width="2" stroke="#797979" fill="none" transform="matrix(1 0 0 1 1020 753 )" mask="url(#clip26)" />
  </g>
</svg>