<?xml version="1.0" encoding="utf-8"?>
<svg version="1.1" xmlns:xlink="http://www.w3.org/1999/xlink" width="19px" height="20px" xmlns="http://www.w3.org/2000/svg">
  <g transform="matrix(1 0 0 1 -186 -85 )">
    <path d="M 9.96651785714287 19.765625  C 9.83928571428575 19.921875  9.68377976190479 20  9.5 20  C 9.31622023809521 20  9.16071428571425 19.921875  9.03348214285713 19.765625  L 2.41741071428575 11.9270833333333  C 2.34672619047617 11.8576388888889  2.24953497023809 11.7447916666667  2.12583705357149 11.5885416666667  C 2.00213913690479 11.4322916666667  1.8059895833333 11.1480034722222  1.53738839285713 10.7356770833333  C 1.26878720238096 10.3233506944444  1.02845982142851 9.90017361111111  0.81640625 9.46614583333333  C 0.60435267857149 9.03211805555559  0.415271577380957 8.50694444444441  0.24916294642851 7.89062499999999  C 0.0830543154761699 7.27430555555559  0 6.67534722222222  0 6.09374999999999  C 0 4.18402777777778  0.448846726190533 2.69097222222223  1.34654017857149 1.61458333333332  C 2.24423363095234 0.53819444444443  3.48474702380947 0  5.06808035714287 0  C 5.50632440476191 0  5.95340401785713 0.0933159722222285  6.40931919642851 0.279947916666686  C 6.865234375 0.466579861111089  7.28934151785713 0.718315972222234  7.681640625 1.03515624999999  C 8.07393973214287 1.35199652777777  8.4114583333333 1.64930555555559  8.69419642857149 1.92708333333332  C 8.97693452380947 2.2048611111111  9.24553571428575 2.5  9.5 2.8125  C 9.75446428571425 2.5  10.0230654761905 2.2048611111111  10.3058035714285 1.92708333333332  C 10.5885416666667 1.64930555555559  10.9260602678571 1.35199652777777  11.318359375 1.03515624999999  C 11.7106584821429 0.718315972222234  12.134765625 0.466579861111089  12.5906808035715 0.279947916666686  C 13.0465959821429 0.0933159722222285  13.4936755952381 0  13.9319196428571 0  C 15.5152529761905 0  16.7557663690477 0.53819444444443  17.6534598214285 1.61458333333332  C 18.5511532738095 2.69097222222223  19 4.18402777777778  19 6.09374999999999  C 19 8.01215277777778  18.190662202381 9.96527777777777  16.5719866071429 11.953125  L 9.96651785714287 19.765625  Z " fill-rule="nonzero" fill="#ff0000" stroke="none" transform="matrix(1 0 0 1 186 85 )" />
  </g>
</svg>