<?xml version="1.0" encoding="utf-8"?>
<svg version="1.1" xmlns:xlink="http://www.w3.org/1999/xlink" width="12px" height="12px" viewBox="337 478  12 12" xmlns="http://www.w3.org/2000/svg">
  <path d="M 343 478  C 346.36 478  349 480.64  349 484  C 349 487.36  346.36 490  343 490  C 339.64 490  337 487.36  337 484  C 337 480.64  339.64 478  343 478  Z " fill-rule="nonzero" fill="#ffffff" stroke="none" />
  <path d="M 343 478.5  C 346.08 478.5  348.5 480.92  348.5 484  C 348.5 487.08  346.08 489.5  343 489.5  C 339.92 489.5  337.5 487.08  337.5 484  C 337.5 480.92  339.92 478.5  343 478.5  Z " stroke-width="1" stroke="#797979" fill="none" />
  <path d="M 343 487  C 341.32 487  340 485.68  340 484  C 340 482.32  341.32 481  343 481  C 344.68 481  346 482.32  346 484  C 346 485.68  344.68 487  343 487  " fill-rule="nonzero" fill="#797979" stroke="none" />
</svg>