<?xml version="1.0" encoding="utf-8"?>
<svg version="1.1" xmlns:xlink="http://www.w3.org/1999/xlink" width="12px" height="12px" viewBox="575 478  12 12" xmlns="http://www.w3.org/2000/svg">
  <path d="M 581 478  C 584.36 478  587 480.64  587 484  C 587 487.36  584.36 490  581 490  C 577.64 490  575 487.36  575 484  C 575 480.64  577.64 478  581 478  Z " fill-rule="nonzero" fill="#ffffff" stroke="none" />
  <path d="M 581 478.5  C 584.08 478.5  586.5 480.92  586.5 484  C 586.5 487.08  584.08 489.5  581 489.5  C 577.92 489.5  575.5 487.08  575.5 484  C 575.5 480.92  577.92 478.5  581 478.5  Z " stroke-width="1" stroke="#797979" fill="none" />
  <path d="M 581 487  C 579.32 487  578 485.68  578 484  C 578 482.32  579.32 481  581 481  C 582.68 481  584 482.32  584 484  C 584 485.68  582.68 487  581 487  " fill-rule="nonzero" fill="#797979" stroke="none" />
</svg>