<?xml version="1.0" encoding="utf-8"?>
<svg version="1.1" xmlns:xlink="http://www.w3.org/1999/xlink" width="12px" height="12px" viewBox="437 312  12 12" xmlns="http://www.w3.org/2000/svg">
  <path d="M 443 312  C 446.36 312  449 314.64  449 318  C 449 321.36  446.36 324  443 324  C 439.64 324  437 321.36  437 318  C 437 314.64  439.64 312  443 312  Z " fill-rule="nonzero" fill="#ffffff" stroke="none" />
  <path d="M 443 312.5  C 446.08 312.5  448.5 314.92  448.5 318  C 448.5 321.08  446.08 323.5  443 323.5  C 439.92 323.5  437.5 321.08  437.5 318  C 437.5 314.92  439.92 312.5  443 312.5  Z " stroke-width="1" stroke="#797979" fill="none" />
  <path d="M 443 321  C 441.32 321  440 319.68  440 318  C 440 316.32  441.32 315  443 315  C 444.68 315  446 316.32  446 318  C 446 319.68  444.68 321  443 321  " fill-rule="nonzero" fill="#797979" stroke="none" />
</svg>